<?xml version="1.0" encoding="utf-8" ?>
<svg xmlns="http://www.w3.org/2000/svg" xmlns:xlink="http://www.w3.org/1999/xlink" width="1027" height="1027">
	<path fill="#2D89EC" transform="scale(2.007 2.007)" d="M405.447 357.114Q408.785 357.169 412.123 357.1C412.08 358.976 412.602 364.971 411.744 366.313L410.977 366.339Q407.222 366.314 403.467 366.339L403.382 357.492C403.945 357.03 404.752 357.135 405.447 357.114Z"/>
	<path fill="#2D89EC" transform="scale(2.007 2.007)" d="M408.638 372.872L412.092 372.945C411.927 388.308 412.093 403.684 412.088 419.048L407.394 418.875L403.375 418.956C403.028 403.626 403.604 388.271 403.224 372.945C405.027 372.959 406.835 372.9 408.638 372.872Z"/>
	<path fill="#2D89EC" transform="scale(2.007 2.007)" d="M65.1128 354.342C68.0743 354.458 71.0831 354.348 74.0493 354.34C73.8342 360.593 73.9668 366.892 73.9617 373.15L73.9587 405.073C73.9625 406.991 74.3901 417.356 73.9523 418.52C73.8927 418.678 73.7654 418.802 73.6719 418.943C70.7025 418.835 67.7972 418.843 64.8322 418.997C64.8576 412.392 64.4352 355.622 64.8235 354.747C64.8907 354.595 65.0164 354.477 65.1128 354.342Z"/>
	<path fill="#2D89EC" transform="scale(2.007 2.007)" d="M256.683 359.369L262.115 359.335C261.917 363.883 262.108 368.445 261.931 372.996C264.357 372.92 266.786 372.969 269.212 372.991C269.269 374.973 269.214 376.967 269.206 378.95C266.849 378.598 264.376 378.745 261.988 378.596L261.886 398.538C261.868 402.172 261.55 406.146 262.095 409.735C262.225 410.587 262.571 411.377 262.917 412.16C265.011 412.616 267.115 412.575 269.246 412.585C269.273 414.215 269.722 417.703 268.886 419.136L268.312 419.223C266.524 419.318 264.731 419.423 262.939 419.371C260.33 419.294 257.705 418.8 255.878 416.771C254.594 415.346 253.74 413.413 253.4 411.535C252.654 407.427 253.05 402.781 253.046 398.591C253.04 391.906 252.927 385.19 253.158 378.509L248.388 378.571L248.309 373.019L253.124 372.956Q252.978 366.213 253.014 359.469L256.683 359.369Z"/>
	<path fill="#2D89EC" transform="scale(2.007 2.007)" d="M230.937 372.35C233.336 372.051 236.178 372.388 238.268 373.637C242.181 375.975 243.314 380.46 244.433 384.544C242.33 384.934 240.329 385.898 238.36 386.712C237.495 384.534 237.12 381.652 235.478 379.9C234.7 379.071 233.697 378.684 232.566 378.707C231.29 378.733 229.805 379.105 228.95 380.116C223.006 387.145 243.65 394.403 244.666 406.002C244.943 409.167 244.563 412.503 242.415 414.974C239.672 418.13 236.225 419.114 232.212 419.338C229.868 419.284 227.466 418.843 225.413 417.667C221.132 415.216 219.886 410.854 218.739 406.434C221.194 405.6 223.716 404.826 226.259 404.319C226.974 406.81 227.597 410.156 229.773 411.817C230.804 412.603 232.059 413.042 233.361 412.837C234.611 412.64 235.762 411.949 236.438 410.867C241.425 402.889 222.011 395.956 220.273 385.933C219.741 382.867 220.527 378.7 222.456 376.201C224.623 373.393 227.604 372.705 230.937 372.35Z"/>
	<path fill="#2D89EC" transform="scale(2.007 2.007)" d="M418.009 373.041C420.309 372.958 423.239 372.56 425.436 373.242C425.929 373.394 426.12 373.555 426.412 373.977C428.33 376.753 430.79 383.413 432.644 386.954C434.518 382.278 436.236 377.406 438.656 372.988L446.726 372.95L436.573 395.845Q439.65 402.725 442.945 409.503C444.363 412.402 446.258 415.471 447.115 418.583L446.846 418.924L445.812 418.933Q442.296 419.008 438.782 418.885C436.554 413.757 434.38 408.652 431.678 403.748C429.657 408.802 427.835 413.946 425.642 418.928Q421.525 418.807 417.409 418.931C420.448 410.661 424.203 402.459 427.727 394.371C426.426 392.111 425.432 389.63 424.32 387.27C422.095 382.549 419.922 377.9 418.009 373.041Z"/>
	<path fill="#2D89EC" transform="scale(2.007 2.007)" d="M189.662 372.868C191.718 372.824 193.726 372.797 195.774 373.015C196.886 380.299 198.406 387.574 199.792 394.812C200.47 398.348 201.618 402.242 201.612 405.827C202.804 402.031 203.175 397.864 203.876 393.941C205.116 386.99 206.586 379.986 207.429 372.98Q211.799 372.815 216.171 372.934C214.707 382.542 212.137 392.099 209.912 401.561C209.144 405.354 208.153 409.094 207.329 412.875C206.63 416.084 206.199 419.442 205.073 422.536C204.557 423.951 203.871 425.302 202.851 426.424C199.521 430.087 194.118 430.021 189.559 430.281C189.516 427.998 189.54 425.711 189.537 423.427C191.616 423.369 195.472 423.691 197.042 422.263C197.775 421.597 197.646 419.977 197.565 419.091C197.199 415.094 195.865 410.787 194.959 406.863Q192.167 394.794 189.219 382.762C188.562 380.078 187.026 375.859 187.133 373.191C187.809 372.798 188.881 372.893 189.662 372.868Z"/>
	<path fill="#2D89EC" transform="scale(2.007 2.007)" d="M101.466 372.327C102.952 372.06 104.492 372.339 105.956 372.614C106.555 373.076 107.105 373.594 107.626 374.141C108.696 375.263 109.259 376.51 109.572 378.017C110.711 383.493 110.234 389.744 110.237 395.325Q110.302 407.214 110.142 419.103C107.203 418.913 104.275 418.985 101.333 419.05C101.135 410.863 101.26 402.652 101.255 394.463C101.252 390.577 101.474 386.501 101.094 382.642C101.013 381.824 100.892 380.893 100.379 380.218C99.9023 379.592 99.197 379.31 98.436 379.251C96.5389 379.105 94.28 380.007 92.8785 381.266C92.2798 381.804 92.2684 382.163 92.1879 382.938Q92.2889 400.978 92.146 419.018C89.2069 418.885 86.2998 418.892 83.3592 418.964C83.0246 403.62 83.453 388.255 83.2271 372.908C85.7614 372.824 88.4935 372.588 91.0041 372.875C91.6965 372.954 91.8244 372.925 92.2505 373.461C92.437 374.683 92.2452 375.845 92.1009 377.062C94.9932 374.696 97.7032 372.862 101.466 372.327Z"/>
	<path fill="#2D89EC" transform="scale(2.007 2.007)" d="M286.927 372.348C287.004 372.339 287.081 372.326 287.158 372.321C290.386 372.125 293.892 372.546 296.38 374.778C301.707 379.557 300.977 389.675 301.265 396.247C295.369 395.743 289.159 396.087 283.222 396.054C283.267 399.401 282.396 408.816 284.577 411.228C285.464 412.21 286.77 412.759 288.086 412.786C289.208 412.809 290.364 412.451 291.149 411.621C292.97 409.694 292.312 405.124 292.246 402.592C295.129 402.759 298.081 402.655 300.972 402.665C301.373 406.472 300.664 411.215 298.539 414.449C296.853 417.015 294.514 418.576 291.508 419.143C287.935 419.817 282.569 419.263 279.573 417.125C276.489 414.924 275.344 411.245 274.817 407.668C274.293 404.114 274.38 400.451 274.354 396.865C274.309 390.681 273.495 381.411 277.508 376.256C279.753 373.373 283.516 372.706 286.927 372.348ZM286.558 378.833C285.394 379.255 284.684 379.512 284.123 380.689C282.666 383.75 283.465 387.89 283.113 391.202C285.228 391.141 287.334 391.085 289.45 391.146L292.401 391.216C292.359 388.144 293.057 382.131 290.815 379.856C290.069 379.099 289.179 378.715 288.119 378.723C287.599 378.727 287.076 378.779 286.558 378.833Z"/>
	<path fill="#2D89EC" transform="scale(2.007 2.007)" d="M164.301 354.108Q164.902 354.057 165.504 354.014C169.992 353.698 174.436 354.395 177.898 357.515C181.644 360.892 183.065 365.801 183.27 370.685C180.641 371.447 178.038 372.199 175.351 372.732C174.919 369.258 174.522 365.477 171.904 362.87C170.545 361.517 168.786 360.794 166.865 360.872C164.997 360.948 163.184 361.762 161.965 363.192C160.933 364.403 160.387 365.956 160.243 367.527C159.198 378.941 182.599 384.719 184.198 401.928C184.609 406.348 183.948 410.706 180.983 414.187C177.78 417.948 173.73 419.045 169.018 419.391C165.186 419.244 161.673 418.72 158.521 416.32C153.585 412.562 152.438 406.501 151.681 400.707C154.264 399.695 156.945 399.011 159.618 398.282C160.588 402.532 160.732 408.008 164.614 410.794C166.212 411.941 168.149 412.313 170.072 411.948C171.85 411.61 173.402 410.679 174.386 409.143C175.376 407.595 175.636 405.707 175.558 403.902C175.039 391.859 155.109 386.519 152.371 373.09C151.52 368.915 151.899 363.213 154.391 359.663C156.761 356.289 160.422 354.865 164.301 354.108Z"/>
	<path fill="#2D89EC" transform="scale(2.007 2.007)" d="M376.995 354.088Q377.612 354.055 378.229 354.04C382.79 353.938 387.401 354.711 390.768 358.061C395.762 363.029 395.51 371.17 395.449 377.701C392.481 377.438 389.45 377.556 386.477 377.681C386.576 373.63 387.205 365.933 384.439 362.795C383.317 361.522 381.701 361.11 380.064 360.993C377.897 360.838 375.55 361.206 373.88 362.701C371.613 364.732 371.252 368.872 371.091 371.739C370.805 376.809 370.956 381.958 370.955 387.038C370.953 393.238 370.303 400.487 371.792 406.494C372.262 408.388 373.043 409.737 374.332 411.188C375.583 411.5 376.869 411.79 378.148 411.966C380.047 412.226 382.219 412.071 383.775 410.837C385.729 409.287 386.1 406.716 386.38 404.396Q386.789 399.505 386.671 394.598Q391.054 394.5 395.436 394.606C395.637 400.614 395.514 408.655 391.975 413.752C389.739 416.973 386.271 418.533 382.508 419.121C377.816 419.854 372.303 419.365 368.394 416.438C364.364 413.42 362.787 408.257 362.16 403.468C361.486 398.309 361.658 393.038 361.657 387.846C361.657 380.722 361.324 373.138 362.85 366.142C363.373 363.746 364.22 361.466 365.754 359.522C368.706 355.782 372.481 354.615 376.995 354.088Z"/>
	<path fill="#2D89EC" transform="scale(2.007 2.007)" d="M325.415 372.326C326.908 372.113 328.671 372.117 330.099 372.649C332.388 373.5 333.634 375.116 334.641 377.237C337.598 374.283 341.386 372.26 345.636 372.216C347.762 372.194 349.82 372.546 351.359 374.132C352.788 375.606 353.352 377.457 353.701 379.43C354.544 384.195 354.12 389.441 354.122 394.279L354.131 419.043C351.466 418.906 348.827 418.946 346.162 419.007C346.38 412.069 346.156 405.059 346.135 398.114C346.12 392.85 346.386 387.396 345.969 382.156C345.9 381.295 345.855 379.989 345.296 379.297C344.51 378.323 343.339 378.031 342.136 378.009C340.085 377.971 338.4 378.672 336.986 380.169C336.37 380.82 335.805 381.566 335.638 382.464C335.078 385.479 335.539 389.395 335.549 392.496L335.622 415.508L335.576 418.996C332.819 418.775 330.073 418.845 327.314 418.947C327.267 414.103 327.852 381.176 326.546 379.442C325.959 378.663 325.021 378.1 324.058 377.957C321.417 377.564 318.895 379.641 316.938 381.128C316.446 385.215 316.797 389.729 316.794 393.863L316.832 419.027C314.01 418.861 311.229 418.9 308.406 418.969C308.023 413.743 308.258 408.379 308.259 403.133L308.234 372.867Q312.392 372.741 316.55 372.881C316.62 374.018 316.554 375.178 316.535 376.317C319.541 374.292 321.779 372.895 325.415 372.326Z"/>
	<path fill="#2D89EC" transform="scale(2.007 2.007)" d="M140.008 376.661C142.531 374.792 144.85 373.279 147.711 371.972C148.514 373.856 149.174 375.759 149.809 377.706C147.117 378.211 144.859 379.201 142.393 380.379C143.842 385.417 144.256 391.479 142.643 396.533C140.442 403.426 135.286 404.666 128.854 404.398C127.862 404.356 126.212 404.1 125.339 404.543C124.953 405.235 124.672 406.017 124.668 406.823C124.648 411.439 139.035 407.582 144.36 414.118C146.57 416.832 146.759 420.14 146.452 423.458C145.796 426.092 144.617 428.171 142.446 429.885C137.99 433.403 130.919 433.28 125.574 432.608C122.366 432.205 118.625 431.082 116.621 428.381C115.502 426.873 115.01 424.845 115.36 422.995C115.957 419.843 118.695 417.435 121.223 415.702Q120.826 415.486 120.444 415.242C119.001 414.31 117.703 412.851 117.368 411.123C116.674 407.534 119.812 404.609 121.655 401.902C119.231 398.981 117.802 395.681 117.344 391.911C116.722 386.8 117.245 380.574 120.632 376.433C122.849 373.722 125.874 372.682 129.235 372.345C129.947 372.26 130.66 372.253 131.376 372.294C134.906 372.501 137.685 374.098 140.008 376.661ZM130.26 378.544C128.777 378.846 127.736 379.137 126.868 380.458C124.765 383.659 124.862 390.13 125.75 393.776C126.11 395.251 126.845 396.91 128.212 397.71C128.903 398.114 129.782 398.294 130.577 398.284C132.062 397.89 133.771 397.54 134.567 396.067C136.064 393.297 135.816 384.795 134.843 381.815C134.448 380.603 133.751 379.346 132.546 378.791C131.834 378.462 131.025 378.525 130.26 378.544ZM126.3 416.212C125.023 417.939 122.872 420.277 123.256 422.625C123.411 423.573 124.002 424.312 124.806 424.807C127.571 426.511 132.507 426.002 135.553 425.375C136.93 424.875 138.099 424.322 139.34 423.534C139.406 421.846 139.628 420.229 138.376 418.893C136.112 416.479 129.508 416.703 126.3 416.212Z"/>
	<path fill="#2D89EC" transform="scale(2.007 2.007)" d="M218.914 95.1156C224.785 94.8754 230.699 95.4119 236.542 95.0688C236.287 101.392 236.48 107.794 236.481 114.127L236.488 150.836C236.488 157.864 236.628 164.923 236.412 171.947C242.697 176.387 249.491 180.053 255.788 184.486C259.907 182.143 263.854 179.49 267.888 177.004C270.389 175.464 273.328 174.107 275.537 172.2C275.99 169.058 275.668 165.533 275.666 162.349L275.664 142.76L275.66 111.632C275.651 106.224 275.96 100.56 275.495 95.1832C283.932 95.1232 292.372 95.2797 300.808 95.139L300.778 137.047C300.797 143.912 301.098 150.877 300.79 157.73C305.104 155.612 311.117 151.3 315.414 148.624Q333.473 137.176 351.894 126.321C355.891 123.975 359.72 121.193 363.872 119.147L363.872 208.345C363.843 222.878 363.614 237.431 363.8 251.962C361.198 250.709 358.708 248.99 356.235 247.486C349.315 243.278 342.486 238.713 335.177 235.208L335.34 220.586C331.231 223.41 326.816 225.908 322.57 228.529L303.09 240.697C296.572 244.749 288.626 250.571 281.811 253.641C288.969 258.08 296.264 262.299 303.429 266.729C309.219 270.126 315.637 273.525 320.714 277.915L290.948 292.9C287.724 290.932 284.688 288.61 281.474 286.601Q273.149 281.5 265.068 276.02C262.122 274.051 259.046 272.158 256.316 269.895C254.394 271.689 251.892 273.028 249.676 274.433L238.832 281.331C232.875 285.173 227.082 289.642 220.849 293.004Q214.405 289.429 207.862 286.039C203.387 283.756 196.185 280.635 192.475 277.562C192.489 277.496 192.494 277.426 192.518 277.362C193.211 275.511 225.826 256.207 229.85 253.738C222.835 249.769 216.041 245.252 209.233 240.931Q199.142 234.58 188.965 228.369C184.947 225.886 181.026 223.186 176.874 220.935C177.225 225.404 176.993 230.059 176.998 234.546C173.671 237.413 169.167 239.608 165.411 241.902C159.73 245.373 154.125 249.065 148.29 252.265C148.513 239.844 148.297 227.379 148.293 214.955L148.334 119.24C153.196 121.346 161.002 126.824 165.866 129.763C181.031 138.925 196.282 148.124 211.197 157.685C210.684 136.877 211.144 115.999 211.029 95.1786Q214.972 95.2078 218.914 95.1156ZM334.689 169.205C328.134 172.989 321.767 177.104 315.328 181.081L286.567 198.669C281.707 201.636 273.817 207.26 268.905 209.273C268.948 212.016 268.365 228.092 269.132 229.393L313.772 201.63C319.474 198.115 329.209 191.353 335.033 189.036C335.011 186.641 335.468 169.987 334.689 169.205ZM177.133 169.079C177.295 175.419 177.1 181.796 176.847 188.13L221.913 216.299C228.802 220.577 236.417 224.442 242.847 229.353C243.592 224.989 242.872 214.598 242.892 209.538C230.321 201.273 217.42 193.529 204.602 185.654C195.504 180.064 186.533 174.154 177.133 169.079Z"/>
</svg>
